<?xml version="1.0" encoding="utf-8"?>
<!-- Svg Vector Icons : http://www.onlinewebfonts.com/icon -->
<!DOCTYPE svg PUBLIC "-//W3C//DTD SVG 1.1//EN" "http://www.w3.org/Graphics/SVG/1.1/DTD/svg11.dtd">
<svg version="1.1" xmlns="http://www.w3.org/2000/svg" xmlns:xlink="http://www.w3.org/1999/xlink" x="0px" y="0px" viewBox="0 0 1000 1000" enable-background="new 0 0 1000 1000" xml:space="preserve">
<metadata> Svg Vector Icons : http://www.onlinewebfonts.com/icon </metadata>
<g><path d="M426.3,836.1C195.9,836.1,10,650.2,10,419.8C10,189.5,195.9,3.5,426.3,3.5c230.4,0,416.3,185.9,416.3,416.3C842.6,650.2,656.7,836.1,426.3,836.1z M426.3,86.8c-183.2,0-333,149.9-333,333c0,183.2,149.9,333,333,333c183.2,0,333-149.9,333-333C759.3,236.6,609.5,86.8,426.3,86.8z"/><path d="M931.8,996.5L663.9,734.6l58.2-59.5L990,937L931.8,996.5z"/></g>
</svg>